<svg width="24" height="16" viewBox="0 0 24 16" fill="none" xmlns="http://www.w3.org/2000/svg">
<path d="M0 16V0H2.18182V10.6667H10.9091V2.13333H19.6364C20.8364 2.13333 21.8636 2.55111 22.7182 3.38667C23.5727 4.22222 24 5.22667 24 6.4V16H21.8182V12.8H2.18182V16H0ZM6.54545 9.6C5.63636 9.6 4.86364 9.28889 4.22727 8.66667C3.59091 8.04445 3.27273 7.28889 3.27273 6.4C3.27273 5.51111 3.59091 4.75556 4.22727 4.13333C4.86364 3.51111 5.63636 3.2 6.54545 3.2C7.45455 3.2 8.22727 3.51111 8.86364 4.13333C9.5 4.75556 9.81818 5.51111 9.81818 6.4C9.81818 7.28889 9.5 8.04445 8.86364 8.66667C8.22727 9.28889 7.45455 9.6 6.54545 9.6ZM13.0909 10.6667H21.8182V6.4C21.8182 5.81333 21.6044 5.31093 21.1767 4.8928C20.7491 4.47467 20.2356 4.26596 19.6364 4.26667H13.0909V10.6667ZM6.54545 7.46667C6.85455 7.46667 7.11382 7.36427 7.32327 7.15947C7.53273 6.95467 7.63709 6.70151 7.63636 6.4C7.63636 6.09778 7.53164 5.84427 7.32218 5.63947C7.11273 5.43467 6.85382 5.33262 6.54545 5.33333C6.23636 5.33333 5.97709 5.43573 5.76764 5.64053C5.55818 5.84533 5.45382 6.09849 5.45455 6.4C5.45455 6.70222 5.55927 6.95573 5.76873 7.16053C5.97818 7.36533 6.23709 7.46738 6.54545 7.46667Z" fill="#0C1518"/>
</svg> 