<?xml version="1.0" encoding="UTF-8"?>
<svg id="Layer_2" data-name="Layer 2" xmlns="http://www.w3.org/2000/svg" width="48" height="48" viewBox="0 0 48 48">
  <defs>
    <style>
      .cls-1 {
        fill: #f8f8f9;
      }

      .cls-1, .cls-2 {
        stroke-width: 0px;
      }

      .cls-2 {
        fill: #231f20;
      }

      .cls-3 {
        stroke: #231f20;
      }

      .cls-3, .cls-4 {
        fill: none;
        stroke-linecap: round;
        stroke-miterlimit: 10;
        stroke-width: .5px;
      }

      .cls-4 {
        stroke: #fff;
      }
    </style>
  </defs>
  <circle class="cls-1" cx="24" cy="24" r="24"/>
  <g>
    <path class="cls-3" d="M33.44,12.13c.49.56.76,6.78.46,11.94s-4.41,5.22-4.41,5.22h-3.74"/>
    <path class="cls-2" d="M33.93,12.69s-6.01.77-10.78-1.1l-1.21,5.32s-3.81-1.57-4.11,2.72,4.29,2.96,4.71,1.75c0,0,3.38,5.8-3.62,6.89,0,0-6.57-.52-5.44-5.92,0,0,.62-2.39,3.62-3.02,0,0-2.34-8.64,5.01-10.39s9.97.79,9.97.79c0,0,1.53,1.06,1.84,2.97"/>
    <line class="cls-3" x1="31.31" y1="14.35" x2="32.58" y2="14.78"/>
    <line class="cls-3" x1="26.24" y1="14.78" x2="24.85" y2="15.26"/>
    <ellipse class="cls-2" cx="31.95" cy="17.19" rx=".46" ry=".72"/>
    <ellipse class="cls-2" cx="26.32" cy="17.19" rx=".46" ry=".72"/>
    <path class="cls-3" d="M29.86,17.19l.12,2.31s1.6.04,1.51.95-1.51.91-1.51.91"/>
    <path class="cls-3" d="M25.86,22.8s.62,1.19,1.43,1.2"/>
    <path class="cls-3" d="M22.47,21.88s.81-.88.72-2.61-1.49-2.58-2.05-2.8"/>
    <path class="cls-3" d="M20.38,17.92s1.17.36,1.13,1.79c-.04,1.21-1.13,1.37-1.13,1.37"/>
    <path class="cls-3" d="M34.02,16.26s1.1.23,1.1,2.41-.98,2.36-.98,2.36"/>
    <path class="cls-4" d="M22.52,8.84s-3.19,2.24-2.66,7.84"/>
    <path class="cls-2" d="M24,24.86s3.06.08,3.1,1.17-3.22-.58-3.22-.58l-.39-.22-.37-.26.88-.1Z"/>
    <path class="cls-4" d="M20.94,22.8s1.55,1.78,3.01,2.43"/>
    <path class="cls-2" d="M29.86,29.29h-4.35s2.28,1.56,3.04,2.12l1.31-2.12Z"/>
    <path class="cls-3" d="M21.51,26.81s.02,2.98,2.13,4.19c2.68,1.53,5.05.35,5.05.35"/>
    <path class="cls-3" d="M29.17,29.67s7.45,2.13,9.46,10.83"/>
    <path class="cls-3" d="M17.25,27.21s-7.89,2.82-8.17,12.4l-.02,2.58"/>
    <line class="cls-3" x1="34.41" y1="38.53" x2="35.21" y2="40.5"/>
    <line class="cls-3" x1="19.31" y1="37.97" x2="21.51" y2="45.74"/>
    <path class="cls-3" d="M26.07,46.02s4.55-4.47,6.85-4.99,4.07-.81,5.72,1.57"/>
    <line class="cls-3" x1="36.66" y1="42.19" x2="37.87" y2="43.34"/>
    <line class="cls-3" x1="35.45" y1="43.17" x2="36.42" y2="44.2"/>
    <line class="cls-3" x1="34.1" y1="44.2" x2="34.89" y2="45.06"/>
  </g>
</svg>