<svg width="29" height="17" viewBox="0 0 29 17" fill="none" xmlns="http://www.w3.org/2000/svg">
<path d="M28.8754 14.4024C28.973 14.3047 28.973 14.1464 28.8754 14.0488L27.2844 12.4578C27.1868 12.3602 27.0285 12.3602 26.9308 12.4578C26.8332 12.5555 26.8332 12.7137 26.9308 12.8114L28.345 14.2256L26.9308 15.6398C26.8332 15.7374 26.8332 15.8957 26.9308 15.9934C27.0285 16.091 27.1868 16.091 27.2844 15.9934L28.8754 14.4024ZM0.522461 14.4756H28.6986V13.9756H0.522461V14.4756Z" fill="black" fill-opacity="0.5"/>
<g clip-path="url(#clip0_204_2706)">
<path d="M20.2268 4.12808C20.5669 4.28897 20.9258 4.57914 20.9258 5.03134C20.9258 5.48355 20.5663 5.77372 20.2268 5.93461C19.8752 6.10067 19.4496 6.18054 19.104 6.18054L16.8627 6.18054L15.293 9.1512C15.2174 9.29449 15.1011 9.41501 14.9572 9.49925C14.8132 9.58349 14.6473 9.62811 14.4781 9.62812H13.6388C13.5948 9.6281 13.5512 9.619 13.5113 9.60146C13.4713 9.58391 13.4358 9.55834 13.4073 9.52652C13.3788 9.49469 13.358 9.45739 13.3463 9.41718C13.3346 9.37698 13.3322 9.33484 13.3395 9.2937L13.8969 6.1294L12.5288 5.91393L11.7285 6.67124C11.686 6.71153 11.6318 6.73897 11.5729 6.7501C11.5139 6.76123 11.4528 6.75554 11.3972 6.73375C11.3417 6.71196 11.2942 6.67506 11.2609 6.62772C11.2275 6.58038 11.2098 6.52473 11.2099 6.46784L11.2099 3.59485C11.2098 3.53796 11.2275 3.48231 11.2609 3.43497C11.2942 3.38763 11.3417 3.35073 11.3972 3.32894C11.4528 3.30715 11.5139 3.30146 11.5729 3.31259C11.6318 3.32372 11.686 3.35116 11.7285 3.39145L12.5288 4.14934L13.8969 3.93329L13.3395 0.768986C13.3322 0.727846 13.3346 0.685711 13.3463 0.645507C13.358 0.605303 13.3788 0.567994 13.4073 0.536172C13.4358 0.504351 13.4713 0.478779 13.5113 0.461233C13.5512 0.443688 13.5948 0.43459 13.6388 0.43457L14.4781 0.43457C14.6473 0.434576 14.8132 0.479201 14.9572 0.56344C15.1011 0.647679 15.2174 0.7682 15.293 0.911486L16.8627 3.88215L19.104 3.88215C19.449 3.88215 19.8759 3.96259 20.2268 4.12808ZM19.9548 4.64177C19.6991 4.52053 19.3658 4.45675 19.104 4.45675L16.6751 4.45675C16.6187 4.45675 16.5635 4.44191 16.5156 4.4139C16.4676 4.3859 16.4289 4.34582 16.4036 4.29816L14.7495 1.16776C14.7243 1.12009 14.6855 1.08002 14.6376 1.05201C14.5896 1.024 14.5344 1.00917 14.4781 1.00917L13.9971 1.00917L14.5455 4.12233C14.5586 4.19737 14.5398 4.2743 14.4932 4.33623C14.4465 4.39817 14.3758 4.44006 14.2965 4.45273L12.4748 4.74002C12.427 4.74764 12.3779 4.7443 12.3318 4.73031C12.2856 4.71631 12.2436 4.69206 12.2094 4.65958L11.8171 4.28897L11.8171 5.77487L12.2094 5.40311C12.2436 5.37071 12.2854 5.34651 12.3315 5.33252C12.3775 5.31853 12.4264 5.31515 12.4742 5.32266L14.2959 5.60996C14.3353 5.61616 14.3729 5.62965 14.4068 5.64964C14.4407 5.66964 14.47 5.69575 14.4932 5.72649C14.5164 5.75723 14.5329 5.79199 14.5419 5.82879C14.5509 5.86558 14.5521 5.90369 14.5455 5.94093L13.9971 9.05352H14.4781C14.5344 9.05352 14.5896 9.03869 14.6376 9.01068C14.6855 8.98267 14.7243 8.94259 14.7495 8.89493L16.4036 5.76453C16.4289 5.71687 16.4676 5.67679 16.5156 5.64878C16.5635 5.62078 16.6187 5.60594 16.6751 5.60594L19.104 5.60594C19.3664 5.60594 19.6985 5.54274 19.9548 5.42092C20.222 5.29451 20.3185 5.15373 20.3185 5.03134C20.3185 4.90896 20.2226 4.76818 19.9548 4.64177Z" fill="black"/>
</g>
<defs>
<clipPath id="clip0_204_2706">
<rect width="9.19355" height="9.71591" fill="white" transform="matrix(0 1 -1 0 20.9258 0.43457)"/>
</clipPath>
</defs>
</svg>
