<svg width="24" height="24" viewBox="0 0 24 24" fill="none" xmlns="http://www.w3.org/2000/svg">
<path fill-rule="evenodd" clip-rule="evenodd" d="M6.86962 2.59367C7.0077 2.37944 7.24513 2.25 7.50001 2.25H8.76048C8.77497 2.25 8.78945 2.25042 8.80392 2.25126C8.97341 2.26109 9.13875 2.30764 9.28848 2.38768C9.43251 2.46466 9.55879 2.57087 9.65928 2.69942L15.5289 9.83556L18.2368 9.76463C18.43 9.75415 18.9635 9.75 19.1119 9.75C20.2047 9.75 21.1683 9.8963 21.8885 10.2132C22.6035 10.5278 23.25 11.1048 23.25 12C23.25 12.8956 22.6015 13.4734 21.8873 13.7888C21.1666 14.107 20.2031 14.2547 19.1124 14.2547C18.9624 14.2547 18.4324 14.2505 18.2375 14.2401L15.5298 14.168L9.64649 21.3018C9.54601 21.43 9.41987 21.5359 9.27608 21.6126C9.12659 21.6924 8.96158 21.7389 8.79241 21.7487C8.77787 21.7496 8.76332 21.75 8.74876 21.75H7.50001C7.24515 21.75 7.00774 21.6206 6.86965 21.4064C6.73155 21.1922 6.71169 20.9225 6.8169 20.6904L9.83918 14.0225L5.3036 13.921L3.64942 15.9262C3.64574 15.9308 3.64186 15.9358 3.63778 15.941C3.55772 16.0429 3.40179 16.2413 3.16086 16.3634C2.89965 16.4958 2.62563 16.5 2.43751 16.5H1.59751C1.50536 16.5 1.0337 16.4889 0.822567 16.0242C0.738595 15.8394 0.746156 15.6712 0.755159 15.5886C0.763915 15.5083 0.782415 15.4402 0.794021 15.401L1.72305 12.0704C1.72988 12.0459 1.73795 12.0218 1.74723 11.9981C1.74852 11.9948 1.74852 11.9911 1.74723 11.9878C1.73786 11.9639 1.72972 11.9396 1.72284 11.9148L0.794148 8.57169C0.794015 8.57126 0.79386 8.57075 0.793686 8.57018C0.785496 8.54334 0.732709 8.37037 0.762949 8.17381C0.782996 8.0435 0.847966 7.84448 1.03562 7.68724C1.22001 7.53273 1.4232 7.50234 1.55063 7.50234H2.4347C2.82587 7.50234 3.33376 7.65854 3.65344 8.06473L5.27409 10.0358L9.83606 9.96832L6.81694 3.30971C6.71169 3.07759 6.73153 2.80789 6.86962 2.59367ZM5.39379 10.1818L5.38778 10.1743C5.38981 10.1767 5.39182 10.1792 5.39379 10.1818ZM5.421 13.7784C5.41953 13.7803 5.41803 13.7821 5.41652 13.784L5.421 13.7784ZM8.76476 3.97318L11.6037 10.2344C11.6648 10.3672 11.6911 10.5134 11.68 10.6593C11.6686 10.8081 11.6188 10.9513 11.5353 11.075C11.4519 11.1987 11.3377 11.2985 11.204 11.3647C11.0823 11.425 10.9482 11.4555 10.8127 11.454L5.12712 11.5381C4.95241 11.5423 4.77907 11.5058 4.62082 11.4315C4.46407 11.3578 4.32644 11.2491 4.21853 11.1138L2.49329 9.01555C2.49291 9.01539 2.49253 9.01522 2.49213 9.01505C2.48641 9.01263 2.47964 9.01026 2.47221 9.00822L3.15954 11.4825C3.27781 11.8127 3.27775 12.1737 3.15939 12.5039L2.46317 14.9999C2.46534 14.9999 2.46748 14.9999 2.46958 14.9998C2.4725 14.9962 2.47554 14.9923 2.47871 14.9884L2.48746 14.9773L2.48756 14.9774L4.25132 12.8394C4.35927 12.7055 4.4963 12.5978 4.65206 12.5247C4.8106 12.4502 4.98424 12.4135 5.15935 12.4174L5.15944 12.4174L10.8163 12.5439L10.8166 12.5439C10.9592 12.5472 11.0989 12.5852 11.2236 12.6547C11.3482 12.7242 11.454 12.8231 11.5317 12.9427C11.6094 13.0624 11.6568 13.1992 11.6697 13.3413C11.6825 13.4834 11.6605 13.6265 11.6055 13.7581C11.6026 13.765 11.5996 13.7719 11.5966 13.7787L8.77782 19.9975L14.5595 12.9869C14.6596 12.8598 14.7743 12.7951 14.8243 12.7691C14.8952 12.7323 14.96 12.7112 15.0034 12.6991C15.0836 12.6767 15.1788 12.6609 15.2733 12.6609L15.2932 12.6612L18.2885 12.7409C18.297 12.7411 18.3055 12.7415 18.314 12.742C18.4415 12.7497 18.9465 12.7547 19.1124 12.7547C20.0968 12.7547 20.8271 12.6172 21.2814 12.4166C21.7422 12.2131 21.75 12.0386 21.75 12C21.75 11.961 21.7431 11.788 21.2844 11.5862C20.8308 11.3866 20.1003 11.25 19.1119 11.25C18.9456 11.25 18.4372 11.255 18.3148 11.2626C18.3058 11.2632 18.2968 11.2636 18.2878 11.2638L15.252 11.3433C15.1046 11.3488 14.9582 11.3153 14.8278 11.2458C14.718 11.1873 14.623 11.1052 14.5493 11.0059L8.76476 3.97318ZM2.2324 15.8266L2.23332 15.8234C2.23209 15.828 2.23159 15.8292 2.2324 15.8266Z" fill="#0C1518"/>
</svg> 