<svg width="49" height="29" viewBox="0 0 49 29" fill="none" xmlns="http://www.w3.org/2000/svg">
<path d="M48.7097 8.35209C48.8481 7.78469 48.7693 7.18607 48.4889 6.67376C47.7732 5.43189 46.8193 4.34356 45.682 3.47123C44.5447 2.5989 43.2463 1.95974 41.8613 1.59042C40.4764 1.2211 39.0321 1.12889 37.6115 1.31909C36.1908 1.50929 34.8217 1.97815 33.5826 2.69876L28.8347 5.4371L17.7931 0.247512C17.4792 0.084883 17.1308 0 16.7772 0C16.4237 0 16.0753 0.084883 15.7614 0.247512L9.1364 4.06793C8.80899 4.25679 8.53553 4.52652 8.3422 4.85131C8.14888 5.1761 8.04215 5.54508 8.03224 5.92293C8.02154 6.30358 8.10946 6.68052 8.28745 7.01716C8.46545 7.3538 8.72747 7.6387 9.04807 7.84418L16.3356 12.4375L12.4931 14.6458L1.93724 15.9267C1.5129 15.9792 1.11292 16.1537 0.785862 16.4291C0.458806 16.7046 0.218738 17.069 0.0948029 17.4782C-0.0291321 17.8874 -0.0316037 18.3238 0.0876879 18.7344C0.20698 19.145 0.442904 19.5122 0.766819 19.7913L8.58432 26.5488C9.61351 27.531 10.9316 28.1559 12.3434 28.3309C13.7553 28.5059 15.1861 28.2217 16.4239 27.5204L47.6056 9.69918C47.8713 9.56123 48.1063 9.37067 48.2961 9.1391C48.4859 8.90752 48.6266 8.63976 48.7097 8.35209ZM14.4143 23.8104C13.9901 24.0438 13.501 24.1314 13.0221 24.0595C12.5433 23.9877 12.1014 23.7605 11.7643 23.4129L7.56849 19.8133L13.5972 19.0846C13.8935 19.0466 14.179 18.949 14.4364 18.7975L21.8564 14.5354C22.187 14.3446 22.4624 14.0714 22.656 13.7425C22.8495 13.4135 22.9544 13.04 22.9606 12.6583C22.9651 12.2793 22.872 11.9055 22.6902 11.5729C22.5084 11.2403 22.2441 10.96 21.9227 10.7592L14.6352 6.14376L17.0643 4.75251L28.106 9.87585C28.4199 10.0385 28.7683 10.1234 29.1218 10.1234C29.4754 10.1234 29.8237 10.0385 30.1377 9.87585L35.791 6.60751C36.9495 5.95827 38.2764 5.67218 39.5995 5.78638C40.9226 5.90058 42.1809 6.40978 43.211 7.24793L14.4143 23.8104Z" fill="url(#paint0_linear_45_78)"/>
<defs>
<linearGradient id="paint0_linear_45_78" x1="53.918" y1="13.7705" x2="-2.58203" y2="13.7705" gradientUnits="userSpaceOnUse">
<stop stop-color="#FFBC5C"/>
<stop offset="1" stop-color="#FFDDAC"/>
</linearGradient>
</defs>
</svg>
