<svg width="29" height="17" viewBox="0 0 29 17" fill="none" xmlns="http://www.w3.org/2000/svg">
<path d="M28.8754 14.9024C28.973 14.8047 28.973 14.6464 28.8754 14.5488L27.2844 12.9578C27.1868 12.8602 27.0285 12.8602 26.9308 12.9578C26.8332 13.0555 26.8332 13.2137 26.9308 13.3114L28.345 14.7256L26.9308 16.1398C26.8332 16.2374 26.8332 16.3957 26.9308 16.4934C27.0285 16.591 27.1868 16.591 27.2844 16.4934L28.8754 14.9024ZM0.522461 14.9756H28.6986V14.4756H0.522461V14.9756Z" fill="black" fill-opacity="0.5"/>
<g clip-path="url(#clip0_204_2707)">
<path d="M11.9089 4.62808C11.5688 4.78897 11.21 5.07914 11.21 5.53134C11.21 5.98355 11.5694 6.27372 11.9089 6.43461C12.2605 6.60067 12.6862 6.68054 13.0317 6.68054L15.273 6.68054L16.8428 9.6512C16.9184 9.79449 17.0346 9.91501 17.1786 9.99925C17.3225 10.0835 17.4884 10.1281 17.6577 10.1281H18.4969C18.541 10.1281 18.5845 10.119 18.6245 10.1015C18.6645 10.0839 18.6999 10.0583 18.7284 10.0265C18.7569 9.99469 18.7777 9.95739 18.7895 9.91718C18.8012 9.87698 18.8035 9.83484 18.7963 9.7937L18.2388 6.6294L19.6069 6.41393L20.4073 7.17124C20.4497 7.21153 20.5039 7.23897 20.5629 7.2501C20.6218 7.26123 20.683 7.25554 20.7385 7.23375C20.7941 7.21196 20.8415 7.17506 20.8749 7.12772C20.9082 7.08038 20.926 7.02473 20.9259 6.96784V4.09485C20.926 4.03796 20.9082 3.98231 20.8749 3.93497C20.8415 3.88763 20.7941 3.85073 20.7385 3.82894C20.683 3.80715 20.6218 3.80146 20.5629 3.81259C20.5039 3.82372 20.4497 3.85116 20.4073 3.89145L19.6069 4.64934L18.2388 4.43329L18.7963 1.26899C18.8035 1.22785 18.8012 1.18571 18.7895 1.14551C18.7777 1.1053 18.7569 1.06799 18.7284 1.03617C18.6999 1.00435 18.6645 0.978779 18.6245 0.961233C18.5845 0.943688 18.541 0.93459 18.4969 0.93457L17.6577 0.93457C17.4884 0.934576 17.3225 0.979201 17.1786 1.06344C17.0346 1.14768 16.9184 1.2682 16.8428 1.41149L15.273 4.38215L13.0317 4.38215C12.6868 4.38215 12.2599 4.46259 11.9089 4.62808ZM12.1809 5.14177C12.4366 5.02053 12.77 4.95675 13.0317 4.95675L15.4607 4.95675C15.517 4.95675 15.5722 4.94191 15.6202 4.9139C15.6681 4.8859 15.7069 4.84582 15.7321 4.79816L17.3862 1.66776C17.4115 1.62009 17.4502 1.58002 17.4982 1.55201C17.5461 1.524 17.6013 1.50917 17.6577 1.50917L18.1386 1.50917L17.5903 4.62233C17.5771 4.69737 17.5959 4.7743 17.6426 4.83623C17.6893 4.89817 17.76 4.94006 17.8392 4.95273L19.661 5.24002C19.7088 5.24764 19.7578 5.2443 19.804 5.23031C19.8502 5.21631 19.8921 5.19206 19.9263 5.15958L20.3186 4.78897V6.27487L19.9263 5.90311C19.8922 5.87071 19.8503 5.84651 19.8043 5.83252C19.7582 5.81853 19.7093 5.81515 19.6616 5.82266L17.8399 6.10996C17.8005 6.11616 17.7628 6.12965 17.7289 6.14964C17.6951 6.16964 17.6657 6.19575 17.6426 6.22649C17.6194 6.25723 17.6028 6.29199 17.5939 6.32879C17.5849 6.36558 17.5837 6.40369 17.5903 6.44093L18.1386 9.55352H17.6577C17.6013 9.55352 17.5461 9.53869 17.4982 9.51068C17.4502 9.48267 17.4115 9.44259 17.3862 9.39493L15.7321 6.26453C15.7069 6.21687 15.6681 6.17679 15.6202 6.14878C15.5722 6.12078 15.517 6.10594 15.4607 6.10594L13.0317 6.10594C12.7694 6.10594 12.4372 6.04274 12.1809 5.92092C11.9138 5.79451 11.8172 5.65373 11.8172 5.53134C11.8172 5.40896 11.9131 5.26818 12.1809 5.14177Z" fill="black"/>
</g>
<defs>
<clipPath id="clip0_204_2707">
<rect width="9.19355" height="9.71591" fill="white" transform="matrix(0 1 1 0 11.21 0.93457)"/>
</clipPath>
</defs>
</svg>
